<svg width="65" height="52" viewBox="0 0 65 52" fill="none" xmlns="http://www.w3.org/2000/svg">
<rect y="29.25" width="3.25" height="3.25" fill="#FFDE00"/>
<rect x="3.25" y="32.5" width="3.25" height="3.25" fill="#FFDE00"/>
<rect x="6.5" y="35.75" width="3.25" height="3.25" fill="#FFDE00"/>
<rect x="6.5" y="39" width="3.25" height="3.25" fill="#E57B27"/>
<rect x="6.5" y="42.25" width="3.25" height="19.5" fill="#924C15"/>
<rect x="9.75" y="32.5" width="3.25" height="3.25" fill="#FFDE00"/>
<rect x="13" y="29.25" width="3.25" height="3.25" fill="#FFDE00"/>
<rect x="9.75" y="22.75" width="6.5" height="3.25" fill="#FFDE00"/>
<rect y="22.75" width="6.5" height="3.25" fill="#FFDE00"/>
<rect x="3.25" y="19.5" width="9.75" height="3.25" fill="#FFDE00"/>
<rect x="6.5" y="16.25" width="3.25" height="3.25" fill="#FFDE00"/>
<rect x="3.25" y="26" width="9.75" height="3.25" fill="#FFBA00"/>
<rect x="9.75" y="22.75" width="9.75" height="3.25" transform="rotate(90 9.75 22.75)" fill="#FFBA00"/>
<rect x="3.25" y="48.75" width="3.25" height="13" fill="#DD9868"/>
<rect x="9.75" y="48.75" width="3.25" height="13" fill="#F1B68D"/>
<rect x="32.5" y="35.75" width="26" height="35.75" fill="#2C2CA4"/>
<rect x="13" y="48.75" width="6.5" height="3.25" fill="#5E5DEC"/>
<rect x="16.25" y="45.5" width="6.5" height="3.25" fill="#2C2CA4"/>
<rect x="16.25" y="42.25" width="9.75" height="3.25" fill="#5E5DEC"/>
<rect x="19.5" y="39" width="6.5" height="3.25" fill="#5E5DEC"/>
<rect x="16.25" y="39" width="3.25" height="3.25" fill="#2C2CA4"/>
<rect x="19.5" y="35.75" width="9.75" height="3.25" fill="#2C2CA4"/>
<rect x="26" y="39" width="6.5" height="3.25" fill="#2C2CA4"/>
<rect x="26" y="42.25" width="6.5" height="3.25" fill="#7B62CF"/>
<rect x="32.5" y="45.5" width="9.75" height="3.25" transform="rotate(90 32.5 45.5)" fill="#7B62CF"/>
<rect x="22.75" y="45.5" width="6.5" height="3.25" fill="#9291FF"/>
<rect x="29.25" y="48.75" width="6.5" height="3.25" transform="rotate(90 29.25 48.75)" fill="#9291FF"/>
<rect x="19.5" y="48.75" width="6.5" height="3.25" fill="#2C2CA4"/>
<rect x="9.75" y="42.25" width="6.5" height="6.5" fill="#2C2CA4"/>
<rect x="55.25" y="45.5" width="29.25" height="3.25" transform="rotate(90 55.25 45.5)" fill="#7B62CF"/>
<rect x="26" y="22.75" width="6.5" height="3.25" fill="#7B62CF"/>
<rect x="22.75" y="22.75" width="3.25" height="3.25" fill="#2C2CA4"/>
<rect x="32.5" y="19.5" width="3.25" height="3.25" fill="#7B62CF"/>
<rect x="22.75" y="19.5" width="9.75" height="3.25" fill="#2C2CA4"/>
<rect x="35.75" y="19.5" width="9.75" height="3.25" fill="#2C2CA4"/>
<rect x="48.75" y="19.5" width="13" height="3.25" fill="#2C2CA4"/>
<rect x="52" y="26" width="9.75" height="3.25" transform="rotate(-90 52 26)" fill="#2C2CA4"/>
<rect x="48.75" y="19.5" width="3.25" height="3.25" transform="rotate(-90 48.75 19.5)" fill="#5E5DEC"/>
<rect x="45.5" y="16.25" width="3.25" height="3.25" transform="rotate(-90 45.5 16.25)" fill="#5E5DEC"/>
<rect x="42.25" y="19.5" width="3.25" height="3.25" transform="rotate(-90 42.25 19.5)" fill="#5E5DEC"/>
<rect x="29.25" y="19.5" width="3.25" height="13" transform="rotate(-90 29.25 19.5)" fill="#9291FF"/>
<rect x="35.75" y="16.25" width="3.25" height="9.75" transform="rotate(-90 35.75 16.25)" fill="#9291FF"/>
<rect x="32.5" y="13" width="3.25" height="6.5" transform="rotate(-90 32.5 13)" fill="#9291FF"/>
<rect x="26" y="9.75" width="3.25" height="13" transform="rotate(-90 26 9.75)" fill="#9291FF"/>
<rect x="45.5" y="19.5" width="3.25" height="3.25" transform="rotate(-90 45.5 19.5)" fill="#2C2CA4"/>
<rect x="48.75" y="16.25" width="3.25" height="3.25" transform="rotate(-90 48.75 16.25)" fill="#2C2CA4"/>
<rect x="45.5" y="13" width="3.25" height="3.25" transform="rotate(-90 45.5 13)" fill="#2C2CA4"/>
<rect x="39" y="13" width="6.5" height="6.5" transform="rotate(-90 39 13)" fill="#2C2CA4"/>
<rect x="26" y="19.5" width="9.75" height="3.25" transform="rotate(-90 26 19.5)" fill="#2C2CA4"/>
<rect x="29.25" y="16.25" width="6.5" height="3.25" transform="rotate(-90 29.25 16.25)" fill="#2C2CA4"/>
<rect x="32.5" y="16.25" width="3.25" height="3.25" transform="rotate(-90 32.5 16.25)" fill="#2C2CA4"/>
<rect x="22.75" y="13" width="3.25" height="3.25" transform="rotate(-90 22.75 13)" fill="#2C2CA4"/>
<rect x="22.75" y="3.25" width="3.25" height="6.5" transform="rotate(-90 22.75 3.25)" fill="#2C2CA4"/>
<rect x="19.5" y="6.5" width="3.25" height="22.75" transform="rotate(-90 19.5 6.5)" fill="#2C2CA4"/>
<rect x="16.25" y="9.75" width="3.25" height="9.75" transform="rotate(-90 16.25 9.75)" fill="#2C2CA4"/>
<rect x="19.5" y="32.5" width="6.5" height="3.25" fill="#ADBFC4"/>
<rect x="22.75" y="29.25" width="3.25" height="3.25" fill="#ADBFC4"/>
<rect x="26" y="26" width="3.25" height="3.25" fill="#ADBFC4"/>
<rect x="55.25" y="29.25" width="3.25" height="3.25" fill="#ADBFC4"/>
<rect x="29.25" y="26" width="3.25" height="6.5" fill="#F1B68D"/>
<rect x="39" y="26" width="3.25" height="3.25" fill="#F1B68D"/>
<rect x="32.5" y="29.25" width="3.25" height="13" fill="#DBF0F6"/>
<rect x="35.75" y="29.25" width="3.25" height="16.25" fill="#DBF0F6"/>
<rect x="39" y="35.75" width="3.25" height="13" fill="#DBF0F6"/>
<rect x="39" y="29.25" width="13" height="3.25" fill="#DBF0F6"/>
<rect x="45.5" y="32.5" width="9.75" height="3.25" fill="#DBF0F6"/>
<rect x="42.25" y="48.75" width="3.25" height="3.25" fill="#DBF0F6"/>
<rect x="42.25" y="35.75" width="9.75" height="6.5" fill="#DBF0F6"/>
<rect x="39" y="42.25" width="9.75" height="6.5" fill="#DBF0F6"/>
<rect x="32.5" y="22.75" width="16.25" height="3.25" fill="#F1B68D"/>
<rect x="45.5" y="19.5" width="3.25" height="3.25" fill="#F1B68D"/>
<rect x="32.5" y="26" width="6.5" height="3.25" fill="#141445"/>
<rect x="39" y="32.5" width="6.5" height="3.25" fill="#F1B68D"/>
<rect x="42.25" y="26" width="6.5" height="3.25" fill="#141445"/>
<rect x="29.25" y="32.5" width="3.25" height="3.25" fill="#F2C6A7"/>
<rect x="48.75" y="26" width="3.25" height="3.25" fill="#F2C6A7"/>
<rect x="48.75" y="22.75" width="3.25" height="3.25" fill="#ADBFC4"/>
<rect x="52" y="26" width="3.25" height="6.5" fill="#ADBFC4"/>
<rect x="55.25" y="32.5" width="3.25" height="6.5" fill="#778A8F"/>
<rect x="61.75" y="42.25" width="3.25" height="3.25" fill="#778A8F"/>
<rect x="58.5" y="45.5" width="3.25" height="6.5" fill="#778A8F"/>
<rect x="58.5" y="35.75" width="3.25" height="9.75" fill="#ADBFC4"/>
<rect x="29.25" y="35.75" width="3.25" height="3.25" fill="#ADBFC4"/>
<rect x="26" y="29.25" width="3.25" height="6.5" fill="#778A8F"/>
</svg>
